<svg id="svg5950" xmlns:rdf="http://www.w3.org/1999/02/22-rdf-syntax-ns#" xmlns="http://www.w3.org/2000/svg" height="27.72mm" width="47.073mm" version="1.1" xmlns:cc="http://creativecommons.org/ns#" xmlns:dc="http://purl.org/dc/elements/1.1/" viewBox="0 0 166.79416 98.218969">
 <g id="layer1" fill-rule="evenodd" transform="translate(-328.75 -500.07)" stroke-width="1px">
  <path id="path6498" d="m440.43 506.88-14.142 32.325-50.508 10.102-42.426 12.122-4.0406 22.223s28.284 14.142 40.406 14.142 54.548-4.0406 54.548-4.0406h46.467l24.244-18.183-8.0812-30.305-4.0406-30.305z" stroke="#f59" fill="#f59"/>
  <path id="path6500" d="m440 506.65 3.9286-3.5714 10-2.1429 15.714-0.35714 11.429 3.9286 4.2857 3.9286-2.1428 6.0714-6.7857 0.71429-8.9286 0.71428-10.714-2.8571-9.2857-1.4286z" stroke="#a00" fill="#a00"/>
  <path id="path6502" d="m459.29 505.58 6.4286-3.2143 6.0714 1.0714 3.2143 1.7857-1.7857 2.8571-6.4286 0.35714-7.1429-1.4286z" stroke="#fff" fill="#fff"/>
 </g>
</svg>
